# xmcd
# 
# Track frame offsets:
#     150
#     15120
#     28205
#     45135
#     67340
#     88007
#     105040
#     126277
#     139480
#     161190
# 
# Disc length: 2293
# 
# Revision: 0
# Processed by: cddbd v1.5.2PL0 Copyright (c) Steve Scherf et al.
# Submitted via: fre:ac v1.0.17
# 
DISCID=7e08f30a
DTITLE=BOB CARPENTER - SILENT PASSAGE
DYEAR=1975
DGENRE=Country
TTITLE0=MIRACLE MAN
TTITLE1=SILENT PASSAGE
TTITLE2=OLD FRIENDS
TTITLE3=FIRST LIGHT
TTITLE4=MORNING TRAIN
TTITLE5=THE BELIEVER
TTITLE6=GYPSY BOY
TTITLE7=DOWN ALONG THE BORDER
TTITLE8=BEFORE MY TIME
TTITLE9=NOW AND THEN
EXTD=
EXTT0=
EXTT1=
EXTT2=
EXTT3=
EXTT4=
EXTT5=
EXTT6=
EXTT7=
EXTT8=
EXTT9=
PLAYORDER=
